<mxfile host="www.draw.io" modified="2020-02-10T13:52:33.650Z" agent="Mozilla/5.0 (Windows NT 6.1; Win64; x64; rv:72.0) Gecko/20100101 Firefox/72.0" etag="C-KPqlSGs0MG8WnybNR8" version="12.6.7" type="github">
  <diagram id="YZDRDE-4k_4EGeJsTohQ" name="Page-1">
    <mxGraphModel dx="862" dy="497" grid="1" gridSize="10" guides="1" tooltips="1" connect="1" arrows="1" fold="1" page="1" pageScale="1" pageWidth="827" pageHeight="1169" math="0" shadow="0">
      <root>
        <mxCell id="0"/>
        <mxCell id="1" parent="0"/>
        <mxCell id="_ZHrHOB9s3mB4IiD9mOn-2" value="Fitslike" style="swimlane;fontStyle=1;align=center;verticalAlign=top;childLayout=stackLayout;horizontal=1;startSize=26;horizontalStack=0;resizeParent=1;resizeParentMax=0;resizeLast=0;collapsible=1;marginBottom=0;" parent="1" vertex="1">
          <mxGeometry x="260" y="110" width="160" height="86" as="geometry"/>
        </mxCell>
        <mxCell id="_ZHrHOB9s3mB4IiD9mOn-3" value="+ componentData" style="text;strokeColor=none;fillColor=none;align=left;verticalAlign=top;spacingLeft=4;spacingRight=4;overflow=hidden;rotatable=0;points=[[0,0.5],[1,0.5]];portConstraint=eastwest;" parent="_ZHrHOB9s3mB4IiD9mOn-2" vertex="1">
          <mxGeometry y="26" width="160" height="26" as="geometry"/>
        </mxCell>
        <mxCell id="_ZHrHOB9s3mB4IiD9mOn-4" value="" style="line;strokeWidth=1;fillColor=none;align=left;verticalAlign=middle;spacingTop=-1;spacingLeft=3;spacingRight=3;rotatable=0;labelPosition=right;points=[];portConstraint=eastwest;" parent="_ZHrHOB9s3mB4IiD9mOn-2" vertex="1">
          <mxGeometry y="52" width="160" height="8" as="geometry"/>
        </mxCell>
        <mxCell id="_ZHrHOB9s3mB4IiD9mOn-5" value="+ update(key, value)" style="text;strokeColor=none;fillColor=none;align=left;verticalAlign=top;spacingLeft=4;spacingRight=4;overflow=hidden;rotatable=0;points=[[0,0.5],[1,0.5]];portConstraint=eastwest;" parent="_ZHrHOB9s3mB4IiD9mOn-2" vertex="1">
          <mxGeometry y="60" width="160" height="26" as="geometry"/>
        </mxCell>
        <mxCell id="_ZHrHOB9s3mB4IiD9mOn-11" value="" style="endArrow=diamondThin;endFill=1;endSize=24;html=1;exitX=0.013;exitY=0.44;exitDx=0;exitDy=0;entryX=1;entryY=0.5;entryDx=0;entryDy=0;exitPerimeter=0;" parent="1" source="_ZHrHOB9s3mB4IiD9mOn-25" target="_ZHrHOB9s3mB4IiD9mOn-3" edge="1">
          <mxGeometry width="160" relative="1" as="geometry">
            <mxPoint x="500" y="149" as="sourcePoint"/>
            <mxPoint x="420" y="220" as="targetPoint"/>
          </mxGeometry>
        </mxCell>
        <mxCell id="_ZHrHOB9s3mB4IiD9mOn-12" value="Fitslike_component&#xa;" style="swimlane;fontStyle=1;align=center;verticalAlign=top;childLayout=stackLayout;horizontal=1;startSize=26;horizontalStack=0;resizeParent=1;resizeParentMax=0;resizeLast=0;collapsible=1;marginBottom=0;" parent="1" vertex="1">
          <mxGeometry x="530" y="246" width="130" height="60" as="geometry"/>
        </mxCell>
        <mxCell id="_ZHrHOB9s3mB4IiD9mOn-14" value="" style="line;strokeWidth=1;fillColor=none;align=left;verticalAlign=middle;spacingTop=-1;spacingLeft=3;spacingRight=3;rotatable=0;labelPosition=right;points=[];portConstraint=eastwest;" parent="_ZHrHOB9s3mB4IiD9mOn-12" vertex="1">
          <mxGeometry y="26" width="130" height="8" as="geometry"/>
        </mxCell>
        <mxCell id="_ZHrHOB9s3mB4IiD9mOn-15" value="+ dedicatedMethod" style="text;strokeColor=none;fillColor=none;align=left;verticalAlign=top;spacingLeft=4;spacingRight=4;overflow=hidden;rotatable=0;points=[[0,0.5],[1,0.5]];portConstraint=eastwest;" parent="_ZHrHOB9s3mB4IiD9mOn-12" vertex="1">
          <mxGeometry y="34" width="130" height="26" as="geometry"/>
        </mxCell>
        <mxCell id="_ZHrHOB9s3mB4IiD9mOn-16" value="" style="endArrow=block;dashed=1;endFill=0;endSize=12;html=1;exitX=0.5;exitY=0;exitDx=0;exitDy=0;" parent="1" source="_ZHrHOB9s3mB4IiD9mOn-12" edge="1">
          <mxGeometry width="160" relative="1" as="geometry">
            <mxPoint x="270" y="326" as="sourcePoint"/>
            <mxPoint x="590" y="210" as="targetPoint"/>
          </mxGeometry>
        </mxCell>
        <mxCell id="_ZHrHOB9s3mB4IiD9mOn-28" style="edgeStyle=orthogonalEdgeStyle;rounded=0;orthogonalLoop=1;jettySize=auto;html=1;entryX=0;entryY=0.25;entryDx=0;entryDy=0;" parent="1" source="_ZHrHOB9s3mB4IiD9mOn-17" target="_ZHrHOB9s3mB4IiD9mOn-2" edge="1">
          <mxGeometry relative="1" as="geometry"/>
        </mxCell>
        <mxCell id="_ZHrHOB9s3mB4IiD9mOn-17" value="Fitslike_commons" style="swimlane;fontStyle=1;align=center;verticalAlign=top;childLayout=stackLayout;horizontal=1;startSize=26;horizontalStack=0;resizeParent=1;resizeParentMax=0;resizeLast=0;collapsible=1;marginBottom=0;" parent="1" vertex="1">
          <mxGeometry x="50" y="30" width="160" height="86" as="geometry"/>
        </mxCell>
        <mxCell id="_ZHrHOB9s3mB4IiD9mOn-18" value="+ field: type" style="text;strokeColor=none;fillColor=none;align=left;verticalAlign=top;spacingLeft=4;spacingRight=4;overflow=hidden;rotatable=0;points=[[0,0.5],[1,0.5]];portConstraint=eastwest;" parent="_ZHrHOB9s3mB4IiD9mOn-17" vertex="1">
          <mxGeometry y="26" width="160" height="26" as="geometry"/>
        </mxCell>
        <mxCell id="_ZHrHOB9s3mB4IiD9mOn-19" value="" style="line;strokeWidth=1;fillColor=none;align=left;verticalAlign=middle;spacingTop=-1;spacingLeft=3;spacingRight=3;rotatable=0;labelPosition=right;points=[];portConstraint=eastwest;" parent="_ZHrHOB9s3mB4IiD9mOn-17" vertex="1">
          <mxGeometry y="52" width="160" height="8" as="geometry"/>
        </mxCell>
        <mxCell id="_ZHrHOB9s3mB4IiD9mOn-20" value="+ method(type): type" style="text;strokeColor=none;fillColor=none;align=left;verticalAlign=top;spacingLeft=4;spacingRight=4;overflow=hidden;rotatable=0;points=[[0,0.5],[1,0.5]];portConstraint=eastwest;" parent="_ZHrHOB9s3mB4IiD9mOn-17" vertex="1">
          <mxGeometry y="60" width="160" height="26" as="geometry"/>
        </mxCell>
        <mxCell id="_ZHrHOB9s3mB4IiD9mOn-25" value="&lt;p style=&quot;margin: 0px ; margin-top: 4px ; text-align: center&quot;&gt;&lt;i&gt;&amp;lt;&amp;lt;Interface&amp;gt;&amp;gt;&lt;/i&gt;&lt;br&gt;&lt;b&gt;Fitslike_component&lt;/b&gt;&lt;/p&gt;&lt;hr size=&quot;1&quot;&gt;&lt;p style=&quot;margin: 0px ; margin-left: 4px&quot;&gt;+ m_keywordDict: Dict&lt;/p&gt;&lt;hr size=&quot;1&quot;&gt;&lt;p style=&quot;margin: 0px ; margin-left: 4px&quot;&gt;+ update(key, value): none&lt;br&gt;&lt;br&gt;&lt;/p&gt;" style="verticalAlign=top;align=left;overflow=fill;fontSize=12;fontFamily=Helvetica;html=1;" parent="1" vertex="1">
          <mxGeometry x="510" y="106" width="150" height="100" as="geometry"/>
        </mxCell>
        <mxCell id="_ZHrHOB9s3mB4IiD9mOn-31" style="edgeStyle=orthogonalEdgeStyle;rounded=0;orthogonalLoop=1;jettySize=auto;html=1;entryX=0;entryY=0.25;entryDx=0;entryDy=0;" parent="1" source="_ZHrHOB9s3mB4IiD9mOn-30" target="_ZHrHOB9s3mB4IiD9mOn-12" edge="1">
          <mxGeometry relative="1" as="geometry"/>
        </mxCell>
        <mxCell id="_ZHrHOB9s3mB4IiD9mOn-30" value="&lt;div align=&quot;center&quot;&gt;&lt;i&gt;fitslike.json&lt;/i&gt;&lt;br&gt;&lt;/div&gt;&lt;table style=&quot;width: 100% ; font-size: 1em&quot; cellspacing=&quot;0&quot; cellpadding=&quot;2&quot;&gt;&lt;tbody&gt;&lt;tr&gt;&lt;td&gt;Component&#39;s&lt;br&gt;Keyword&lt;br&gt;&lt;/td&gt;&lt;td&gt;&lt;br&gt;&lt;/td&gt;&lt;/tr&gt;&lt;tr&gt;&lt;td&gt;&lt;br&gt;&lt;/td&gt;&lt;td&gt;&lt;br&gt;&lt;/td&gt;&lt;/tr&gt;&lt;tr&gt;&lt;td&gt;&lt;br&gt;&lt;/td&gt;&lt;td&gt;&lt;br&gt;&lt;/td&gt;&lt;/tr&gt;&lt;/tbody&gt;&lt;/table&gt;" style="verticalAlign=top;align=left;overflow=fill;html=1;" parent="1" vertex="1">
          <mxGeometry x="350" y="246" width="120" height="50" as="geometry"/>
        </mxCell>
        <mxCell id="q2uum7EVuoJg2OlZokvV-1" value="&lt;div align=&quot;center&quot;&gt;&lt;i&gt;fitszilla.json&lt;/i&gt;&lt;br&gt;&lt;/div&gt;&lt;table style=&quot;width: 100% ; font-size: 1em&quot; cellspacing=&quot;0&quot; cellpadding=&quot;2&quot;&gt;&lt;tbody&gt;&lt;tr&gt;&lt;td&gt;Component&#39;s&lt;br&gt;Keyword&lt;br&gt;&lt;/td&gt;&lt;td&gt;&lt;br&gt;&lt;/td&gt;&lt;/tr&gt;&lt;tr&gt;&lt;td&gt;Parsing rules&lt;br&gt;&lt;/td&gt;&lt;td&gt;&lt;br&gt;&lt;/td&gt;&lt;/tr&gt;&lt;tr&gt;&lt;td&gt;&lt;br&gt;&lt;/td&gt;&lt;td&gt;&lt;br&gt;&lt;/td&gt;&lt;/tr&gt;&lt;/tbody&gt;&lt;/table&gt;" style="verticalAlign=top;align=left;overflow=fill;html=1;" vertex="1" parent="1">
          <mxGeometry x="40" y="390" width="120" height="70" as="geometry"/>
        </mxCell>
        <mxCell id="q2uum7EVuoJg2OlZokvV-6" value="Awareness_fitszilla" style="swimlane;fontStyle=1;align=center;verticalAlign=top;childLayout=stackLayout;horizontal=1;startSize=26;horizontalStack=0;resizeParent=1;resizeParentMax=0;resizeLast=0;collapsible=1;marginBottom=0;" vertex="1" parent="1">
          <mxGeometry x="230" y="350" width="150" height="86" as="geometry"/>
        </mxCell>
        <mxCell id="q2uum7EVuoJg2OlZokvV-7" value="+ m_parsingDict: dict&#xa;&#xa;" style="text;strokeColor=none;fillColor=none;align=left;verticalAlign=top;spacingLeft=4;spacingRight=4;overflow=hidden;rotatable=0;points=[[0,0.5],[1,0.5]];portConstraint=eastwest;" vertex="1" parent="q2uum7EVuoJg2OlZokvV-6">
          <mxGeometry y="26" width="150" height="26" as="geometry"/>
        </mxCell>
        <mxCell id="q2uum7EVuoJg2OlZokvV-8" value="" style="line;strokeWidth=1;fillColor=none;align=left;verticalAlign=middle;spacingTop=-1;spacingLeft=3;spacingRight=3;rotatable=0;labelPosition=right;points=[];portConstraint=eastwest;" vertex="1" parent="q2uum7EVuoJg2OlZokvV-6">
          <mxGeometry y="52" width="150" height="8" as="geometry"/>
        </mxCell>
        <mxCell id="q2uum7EVuoJg2OlZokvV-9" value="+ method(type): type" style="text;strokeColor=none;fillColor=none;align=left;verticalAlign=top;spacingLeft=4;spacingRight=4;overflow=hidden;rotatable=0;points=[[0,0.5],[1,0.5]];portConstraint=eastwest;" vertex="1" parent="q2uum7EVuoJg2OlZokvV-6">
          <mxGeometry y="60" width="150" height="26" as="geometry"/>
        </mxCell>
      </root>
    </mxGraphModel>
  </diagram>
</mxfile>
